<?xml version="1.0" encoding="UTF-8"?>
<svg id="a" data-name="Layer 1" xmlns="http://www.w3.org/2000/svg" viewBox="0 0 962.38 1333.37">
  <defs>
    <style>
      .b {
        fill: #010101;
      }

      .c {
        font-family: GeneralSans-Semibold, 'General Sans';
        font-size: 1224.41px;
        font-weight: 600;
      }

      .d {
        fill: #040404;
      }
    </style>
  </defs>
  <text class="c" transform="translate(0 1051.76)"><tspan x="0" y="0">C</tspan></text>
  <g>
    <path d="M313,972.9c-5.6-10.37-10.62-19.61-13.89-31.11-15.65-55.08-6.2-142.48,37.74-183.35,5.39-5.02,20.48-13.29,23.33-16.66,2.13-2.51,4.82-16.9,7.04-21.85,2.16-4.83,10.6-15.27,11.14-18.94s-9.89-19.36-10.83-26.49c-.54-4.12-.4-11.12.04-15.32.54-5.07,4.41-13.06,4.25-16.71-.33-7.29-6.73-21.51-7.58-31.35-.42-4.88-2.23-20.67,4.66-20.09,8.88.75,27.28,17.35,32.05,25.08.48.28,6.2-.71,7.59-.96,10.1.06,20.1-.31,30-1.11,4.65.44,11.69,2.51,15.58,1.78,9.82-1.83,34.92-23.45,40.37-21.7,2.86.92,1.94,9.79,1.68,12.56-1.05,11.07-7.36,23.44-7.71,34.56-.22,6.97,4.7,14.46,5.48,22.37,2.04,20.57-6.92,36.45-21.66,49.82,8.63,26.67,11.31,53.19,8.45,81.13-.77,7.57-6.08,26.81-5.53,32.14.2,1.99,5.66,11.64,6.96,15.34,8.56,24.45,10.34,61.64,1.01,86.05-5.81,15.19-17.92,29.61-26.81,43.15,17.18,8.4,12.93,26.67-3.42,33.29-19.74,7.99-43.72,3.15-64.42,6.13-.66,1.61-1.56,1.61-2.22,0-23.53-.2-46.93-1.72-70.01-6.1-11.92-2.26-16.43-2.97-28.88-3.9-15.43-.2-21.74-16.65-6.5-22.8,7.15.71,14.45.86,21.58-.25,1.94-.3,13.23-3.25,10.48-4.72Z"/>
    <path d="M751.87,934.01c4.4-2.09,2.27-14.01,1.23-15.77.24-4.97-.54-8.97-2.34-12-.3-1.64-.68-4.11-1.11-5.56-2.91-16.96,10.58-11.2,7.81,3,4.65,3.35,6.41,9.01,5.3,16.97-.91,14.52-1.21,28.98-.89,43.37-12.29,22.01-30.94,33.91-56.24,37.64-8.41,1.24-17.43.35-25.33,1.34-4.71.59-10.62,3.17-16,4-22.57,3.5-41.55,3.18-64.04,2.53-13.38-.39-34.81,1.53-46.53-5.69-10.47-6.45-11.04-21.93,1.48-25.92-8.65-13.04-19.56-28.99-25.39-43.5-8.36-20.79-5.25-46.99,3.5-67.29,1.19-2.77,5.67-8.15,5.86-10.28.45-5.16-4.38-22.72-5.06-30.06-1.49-16.28-.47-30.31,2.54-46.32.7-3.74,5.08-16.17,4.8-18.14-.2-1.44-6.87-6.87-8.44-8.88-8.69-11.12-11.78-24.78-8.58-38.53.78-3.33,3.87-9.04,3.96-11.38.34-9.02-10.17-32.93-7.06-39.49.36-.76,1.56-1.92,2.37-2.07,4.67-.84,25.24,18.68,35.39,18.73,5.25.02,13.56-3.38,19.99-3.43,5.46-.04,17.81,3.77,21,3.15,1.68-.33,8.41-8.45,10.67-10.3,14.81-12.16,23.43-17.7,20.99,7.66-.73,7.57-5.92,19.11-6.21,24.75-.3,5.87,5.15,15.14,4,25.26-.78,6.84-9.78,21.31-9.62,23.27.21,2.43,8.18,13.51,9.94,17.76,1.73,4.15,3.37,13.94,4.86,16.25,1.18,1.83,9.99,6.4,12.62,8.49,36.58,29.08,46.72,78.34,44.59,123.28-.98,20.58-4.84,44.69-17.81,61.05,12.61,8.06,36.96,2.96,49.63-3.68,14-7.34,26.11-24.43,28.12-40.2Z"/>
    <path class="b" d="M276.34,975.12q-2.68,1.97,0,0c1.07.19,7.81,1.11,8.33,1.11h20c.89,0,5.87-2.85,8.33-3.33.87-.17,3.75.19,1.69,2.24-2.12,2.11-6.64,1.11-7.03,1.41-4.96,3.84-11.25,3.75-18.55,4.13-4.07.22-8.69-3.11-12.86,2.7-5.73,7.99,3.53,16.11,11.19,17.3-22.79-1.7-42.76-7.21-60.52-22.25-39.13-33.14-41.68-101.6-8.93-139.97,7.24-8.49,32.25-29.61,40.31-12.51,7.32,15.53-11.74,18.08-19.73,26.42-37.56,39.18-17.14,112.74,37.77,122.76Z"/>
    <path class="b" d="M761.87,964.01c-1.31-1.53-2.08-2.85-2.27-4.94-1.37-14.61,2.61-36.91.06-50.07-.59-3.03-3.63-2.67-4.29-4.6-.96-2.8,1.07-9.34-1.22-11-4.97-3.62-2.5,4.47-4.51,7.28-2.36-7.88-9.26-19.7-15.65-24.9-6.46-5.26-20.64-8.99-12.75-20.72,8.31-12.36,27.78,5.43,33.93,12.88,21.96,26.62,23.11,66.67,6.7,96.07Z"/>
    <path class="b" d="M750.76,906.23c.93,1.15,3.08-.48,3.32.65,1.24,5.74-.98,6.18-1.15,8.78-.04.65,1.96.35,2.24,1.33,1.2,4.17,2.53,17.22-1.08,19.8l-2.22-2.78c.95-7.39.25-20.39-1.11-27.78Z"/>
    <path class="d" d="M438.55,614.03l-4.44,2.21c-8.86-1.62-16.89,2.13-25.56-1.1,12.84-2.32,17.19-2.32,30-1.11Z"/>
    <path d="M276.34,975.12c.19.14-1.39,3.87-1.76,4.35-4.29,5.7-2.81-7.68,1.76-4.35Z"/>
  </g>
</svg>